<svg xmlns="http://www.w3.org/2000/svg" viewBox="0 0 1440 320"><path fill="#2F5F30" fill-opacity="1" d="M0,320L30,288C60,256,120,192,180,181.3C240,171,300,213,360,229.3C420,245,480,235,540,213.3C600,192,660,160,720,165.3C780,171,840,213,900,229.3C960,245,1020,235,1080,218.7C1140,203,1200,181,1260,149.3C1320,117,1380,75,1410,53.3L1440,32L1440,320L1410,320C1380,320,1320,320,1260,320C1200,320,1140,320,1080,320C1020,320,960,320,900,320C840,320,780,320,720,320C660,320,600,320,540,320C480,320,420,320,360,320C300,320,240,320,180,320C120,320,60,320,30,320L0,320Z"></path></svg>